<?xml version="1.0" encoding="utf-8"?>
<!-- Generator: Adobe Illustrator 16.0.0, SVG Export Plug-In . SVG Version: 6.00 Build 0)  -->
<!DOCTYPE svg PUBLIC "-//W3C//DTD SVG 1.1//EN" "http://www.w3.org/Graphics/SVG/1.1/DTD/svg11.dtd">
<svg version="1.1" id="Ebene_1" xmlns="http://www.w3.org/2000/svg" xmlns:xlink="http://www.w3.org/1999/xlink" x="0px" y="0px"
	 width="380px" height="380px" viewBox="0 0 380 380" enable-background="new 0 0 380 380" xml:space="preserve">
<g>
	<g>
		<path fill="#43484F" d="M0.5,0h380v380H0.5V0z"/>
		<path fill="#B2B2B2" d="M287.404,202.472c0,53.809-43.602,97.41-97.41,97.41c-53.811,0-97.41-43.602-97.41-97.41
			c0-48.706,35.733-89.074,82.424-96.24V90.075h-13.112c-3.092,0-5.621-2.529-5.621-5.62V65.722c0-3.091,2.529-5.619,5.621-5.619
			h56.197c3.091,0,5.619,2.528,5.619,5.619v18.733c0,3.091-2.528,5.62-5.619,5.62h-13.113v16.157
			c17.562,2.716,33.579,10.116,46.691,20.887l12.879-12.878c2.201-2.201,5.76-2.201,7.961,0l13.254,13.253
			c2.201,2.201,2.201,5.761,0,7.962l-13.769,13.769l-0.281,0.281C281.644,164.678,287.404,182.896,287.404,202.472z M204.979,219.33
			v-70.95c0-3.09-2.528-5.62-5.619-5.62h-18.732c-3.092,0-5.62,2.529-5.62,5.62v70.95c0,3.091,2.528,5.62,5.62,5.62h18.732
			C202.451,224.95,204.979,222.421,204.979,219.33z"/>
	</g>
	<polyline fill="#1EABF9" points="380.5,270 380.5,380 252.167,380 	"/>
</g>
</svg>
